<?xml version="1.0" encoding="UTF-8"?>
<!DOCTYPE svg PUBLIC "-//W3C//DTD SVG 1.1//EN" "http://www.w3.org/Graphics/SVG/1.1/DTD/svg11.dtd">
<svg xmlns="http://www.w3.org/2000/svg" version="1.1" width="267px" height="217px" style="shape-rendering:geometricPrecision; text-rendering:geometricPrecision; image-rendering:optimizeQuality; fill-rule:evenodd; clip-rule:evenodd" xmlns:xlink="http://www.w3.org/1999/xlink">
<g><path style="opacity:0.966" fill="#ffd132" d="M 6.5,-0.5 C 52.8333,-0.5 99.1667,-0.5 145.5,-0.5C 167.556,-1.29608 178.556,9.37059 178.5,31.5C 190.838,31.3335 203.171,31.5001 215.5,32C 224.668,34.4917 231.501,39.9917 236,48.5C 244.748,63.6657 253.748,78.6657 263,93.5C 264.296,96.5711 265.462,99.5711 266.5,102.5C 266.5,122.167 266.5,141.833 266.5,161.5C 262.471,178.001 251.804,186.168 234.5,186C 229.332,202.674 218.332,212.841 201.5,216.5C 197.5,216.5 193.5,216.5 189.5,216.5C 172.35,212.914 161.684,202.581 157.5,185.5C 141.167,185.5 124.833,185.5 108.5,185.5C 104.351,202.651 93.6838,212.984 76.5,216.5C 72.5,216.5 68.5,216.5 64.5,216.5C 47.2759,212.943 36.6093,202.609 32.5,185.5C 13.6979,186.335 2.69787,177.669 -0.5,159.5C -0.5,145.833 -0.5,132.167 -0.5,118.5C 4.30814,110.996 9.47481,110.663 15,117.5C 15.3333,131.5 15.6667,145.5 16,159.5C 18.05,167.523 23.2166,170.69 31.5,169C 40.0055,143.743 57.3388,134.076 83.5,140C 97.1058,145.434 105.439,155.267 108.5,169.5C 124.833,169.5 141.167,169.5 157.5,169.5C 158.235,164.126 160.235,159.293 163.5,155C 162.67,111.904 162.17,68.7376 162,25.5C 161.857,21.0225 159.691,18.1892 155.5,17C 153.167,16.6667 150.833,16.3333 148.5,16C 100.5,15.6667 52.5,15.3333 4.5,15C 2.31305,13.975 0.646381,12.475 -0.5,10.5C -0.5,8.83333 -0.5,7.16667 -0.5,5.5C 1.24275,2.75333 3.57608,0.753325 6.5,-0.5 Z M 178.5,47.5 C 191.266,47.0391 203.933,47.5391 216.5,49C 227.459,66.4162 238.292,83.9162 249,101.5C 250.642,121.077 250.975,140.744 250,160.5C 248.044,167.076 243.544,170.076 236.5,169.5C 235.833,169.167 235.167,168.833 234.5,168.5C 228.698,149.507 215.864,139.173 196,137.5C 190.26,137.927 184.76,139.261 179.5,141.5C 178.5,110.174 178.167,78.8404 178.5,47.5 Z M 67.5,153.5 C 86.517,154.525 95.017,164.525 93,183.5C 88.1116,196.031 78.9449,201.531 65.5,200C 49.7605,194.354 44.2605,183.521 49,167.5C 53.1371,160.029 59.3037,155.362 67.5,153.5 Z M 192.5,153.5 C 209.971,154.137 218.805,163.137 219,180.5C 213.064,198.701 201.23,204.201 183.5,197C 171.977,188.315 169.477,177.481 176,164.5C 180.315,158.935 185.815,155.268 192.5,153.5 Z"/></g>
<g><path style="opacity:0.936" fill="#ffd132" d="M -0.5,47.5 C -0.5,46.1667 -0.5,44.8333 -0.5,43.5C 0.584365,41.1849 2.25103,39.3516 4.5,38C 31.5,37.3333 58.5,37.3333 85.5,38C 90.2238,40.4353 91.7238,44.2686 90,49.5C 88.786,51.0488 87.286,52.2155 85.5,53C 58.8333,53.6667 32.1667,53.6667 5.5,53C 2.64986,51.9791 0.649863,50.1458 -0.5,47.5 Z"/></g>
<g><path style="opacity:0.937" fill="#ffd133" d="M -0.5,85.5 C -0.5,83.8333 -0.5,82.1667 -0.5,80.5C 0.596413,78.8968 1.92975,77.3968 3.5,76C 22.8333,75.3333 42.1667,75.3333 61.5,76C 64.3661,77.3929 65.6994,79.7262 65.5,83C 65.6682,87.8329 63.3348,90.4996 58.5,91C 41.1667,91.6667 23.8333,91.6667 6.5,91C 3.40247,90.0617 1.06914,88.2284 -0.5,85.5 Z"/></g>
</svg>
